<svg width="86" height="81" viewBox="0 0 86 81" fill="none" xmlns="http://www.w3.org/2000/svg">
<path d="M82.416 27.9061C82.6468 28.0372 82.7965 28.3428 82.7529 28.583L77.0071 59.358C76.9822 59.4827 76.9135 59.5638 76.82 59.5981L76.7763 59.6106C76.6983 59.6262 76.6047 59.6075 76.508 59.5545L31.6433 33.6519C31.4125 33.5177 31.2627 33.2152 31.3064 32.975L37.0521 2.19694C37.0802 2.05346 37.1675 1.96924 37.283 1.94428C37.3641 1.92869 37.4545 1.9474 37.5512 2.00043L82.416 27.9061Z" fill="white"/>
<path d="M76.8297 59.8763V63.1078C76.8297 63.2077 76.7549 63.3168 76.6114 63.4011L47.2121 80.3731C46.9469 80.526 46.5414 80.5416 46.3106 80.4074L1.44581 54.508C1.34288 54.4487 1.29297 54.3645 1.29297 54.2803V51.0674C1.29921 51.1454 1.34912 51.2202 1.44581 51.2764L46.3106 77.1759C46.5414 77.31 46.9469 77.2944 47.2121 77.1415L76.6114 60.1695C76.758 60.0853 76.8297 59.9761 76.8297 59.8763Z" fill="#3A3A3A"/>
<path d="M76.5082 59.5518L76.6736 59.6485C76.7796 59.7077 76.8295 59.7919 76.8295 59.8762C76.8295 59.976 76.7547 60.0852 76.6112 60.1694L47.2119 77.1414C46.9467 77.2943 46.5412 77.3099 46.3104 77.1758L1.44562 51.2763C1.34892 51.2201 1.29901 51.1453 1.29277 51.0673C1.28342 50.9612 1.35828 50.8427 1.51112 50.7554L30.9104 33.7833C31.1756 33.6305 31.578 33.6149 31.8088 33.749L76.5082 59.5518ZM68.0893 59.8387C68.3139 59.7077 68.3388 59.5112 68.1454 59.3989L65.9432 58.1294C65.7467 58.0171 65.4067 58.0295 65.179 58.1606L63.0859 59.3677C62.8613 59.4987 62.8364 59.6952 63.0298 59.8075L65.232 61.0771C65.4285 61.1925 65.7685 61.1769 65.9962 61.0459L68.0893 59.8387ZM63.3355 57.0969C63.5632 56.9659 63.5881 56.7694 63.3916 56.6571L61.1894 55.3875C60.996 55.2752 60.6529 55.2877 60.4283 55.4187L58.3352 56.629C58.1075 56.7569 58.0857 56.9534 58.2791 57.0657L60.4813 58.3352C60.6747 58.4507 61.0178 58.4351 61.2424 58.304L63.3355 57.0969ZM63.1327 62.7022C63.3573 62.5712 63.3823 62.3747 63.1889 62.2624L60.9866 60.9929C60.7901 60.8806 60.4501 60.8931 60.2224 61.0241L58.1294 62.2312C57.9048 62.3622 57.8798 62.5588 58.0732 62.6711L60.2754 63.9406C60.472 64.056 60.812 64.0404 61.0397 63.9094L63.1327 62.7022ZM58.5848 54.3519C58.8125 54.2209 58.8375 54.0244 58.6409 53.9121L56.4387 52.6425C56.2453 52.5302 55.9022 52.5427 55.6776 52.6768L53.5846 53.884C53.3569 54.0119 53.3319 54.2084 53.5284 54.3207L55.7306 55.5934C55.924 55.7057 56.2672 55.6932 56.4917 55.5591L58.5848 54.3519ZM58.3789 59.9573C58.6066 59.8263 58.6316 59.6297 58.4351 59.5175L56.2328 58.2479C56.0395 58.1356 55.6963 58.1481 55.4717 58.2791L53.3787 59.4863C53.151 59.6173 53.1292 59.8138 53.3225 59.9261L55.5248 61.1956C55.7182 61.311 56.0613 61.2954 56.2859 61.1644L58.3789 59.9573ZM58.1762 65.5626C58.4008 65.4316 58.4257 65.2351 58.2323 65.1228L51.3137 61.127C51.1172 61.0147 50.7741 61.0272 50.5495 61.1613L48.4565 62.3685C48.2319 62.4995 48.2069 62.696 48.4003 62.8083L55.3189 66.801C55.5154 66.9164 55.8554 66.9008 56.0831 66.7698L58.1762 65.5626ZM53.831 51.6069C54.0556 51.479 54.0805 51.2825 53.8871 51.1671L51.6849 49.8976C51.4915 49.7853 51.1484 49.7977 50.9207 49.9319L48.8276 51.139C48.6031 51.2669 48.5781 51.4634 48.7715 51.5789L50.9737 52.8484C51.1702 52.9607 51.5102 52.9482 51.7379 52.8141L53.831 51.6069ZM53.6594 68.2016C53.884 68.0737 53.909 67.8771 53.7156 67.7649L51.5134 66.4922C51.32 66.3799 50.9768 66.3924 50.7523 66.5265L48.6592 67.7337C48.4315 67.8647 48.4065 68.0612 48.6031 68.1735L50.8053 69.443C50.9987 69.5553 51.3418 69.5429 51.5664 69.4087L53.6594 68.2016ZM53.6251 57.2154C53.8528 57.0844 53.8778 56.8879 53.6813 56.7756L51.479 55.506C51.2857 55.3937 50.9425 55.4062 50.7179 55.5404L48.6249 56.7475C48.3972 56.8754 48.3722 57.0719 48.5687 57.1842L50.771 58.4569C50.9644 58.5692 51.3075 58.5567 51.5321 58.4226L53.6251 57.2154ZM49.0803 48.8651C49.3049 48.7372 49.3299 48.5407 49.1365 48.4284L46.9342 47.1557C46.7377 47.0434 46.3977 47.0559 46.17 47.19L44.077 48.3972C43.8524 48.5282 43.8274 48.7247 44.0208 48.837L46.223 50.1065C46.4196 50.2188 46.7596 50.2064 46.9873 50.0722L49.0803 48.8651ZM48.9212 65.4659C49.1458 65.338 49.1708 65.1415 48.9774 65.0292L46.7752 63.7566C46.5786 63.6443 46.2386 63.6567 46.0109 63.7909L43.9179 64.998C43.6933 65.1291 43.6683 65.3256 43.8617 65.4379L46.064 66.7074C46.2605 66.8197 46.6005 66.8072 46.8282 66.6762L48.9212 65.4659ZM48.8744 54.4704C49.099 54.3425 49.124 54.146 48.9306 54.0306L46.7284 52.7611C46.535 52.6488 46.1918 52.6613 45.9641 52.7954L43.8711 54.0025C43.6465 54.1304 43.6216 54.327 43.8149 54.4424L46.0172 55.7119C46.2137 55.8242 46.5568 55.8117 46.7814 55.6776L48.8744 54.4704ZM48.6686 60.0758C48.8963 59.9448 48.9212 59.7483 48.7247 59.636L46.5225 58.3664C46.3291 58.2541 45.986 58.2666 45.7614 58.4007L43.6683 59.6079C43.4406 59.7358 43.4157 59.9323 43.6122 60.0446L45.8144 61.3173C46.0078 61.4296 46.3509 61.4171 46.5755 61.283L48.6686 60.0758ZM44.3265 46.1201C44.5542 45.9922 44.5792 45.7957 44.3827 45.6834L42.1804 44.4107C41.987 44.2984 41.6439 44.3109 41.4193 44.445L39.3263 45.6522C39.0986 45.7832 39.0767 45.9797 39.2701 46.092L41.4724 47.3616C41.6658 47.4739 42.0089 47.4614 42.2335 47.3304L44.3265 46.1201ZM44.183 62.7334C44.4076 62.6024 44.4326 62.4059 44.2392 62.2936L27.6945 52.7424C27.5011 52.6301 27.1579 52.6425 26.9333 52.7767L24.8434 53.9807C24.6188 54.1117 24.5939 54.3082 24.7873 54.4205L41.3289 63.9687C41.5254 64.081 41.8654 64.0685 42.0931 63.9375L44.183 62.7334ZM44.1238 51.7255C44.3483 51.5976 44.3733 51.4011 44.1799 51.2888L41.9777 50.0161C41.7812 49.9038 41.4412 49.9163 41.2135 50.0504L39.1204 51.2576C38.8958 51.3886 38.8709 51.5851 39.0643 51.6974L41.2665 52.9669C41.463 53.0792 41.803 53.0668 42.0307 52.9326L44.1238 51.7255ZM43.9179 57.3308C44.1425 57.2029 44.1674 57.0064 43.974 56.891L41.7718 55.6215C41.5784 55.5092 41.2353 55.5216 41.0076 55.6558L38.9145 56.8629C38.69 56.9908 38.665 57.1873 38.8584 57.3028L41.0606 58.5723C41.2571 58.6846 41.6003 58.6721 41.8248 58.538L43.9179 57.3308ZM39.5758 43.3782C39.8035 43.2472 39.8285 43.0507 39.632 42.9384L37.4298 41.6689C37.2364 41.5535 36.8932 41.569 36.6687 41.7001L34.5756 42.9072C34.3479 43.0382 34.3229 43.2347 34.5195 43.347L36.7217 44.6166C36.9151 44.7289 37.2582 44.7164 37.4828 44.5854L39.5758 43.3782ZM39.37 48.9805C39.5977 48.8526 39.6226 48.6561 39.4261 48.5438L37.2239 47.2711C37.0305 47.1588 36.6874 47.1713 36.4628 47.3054L34.3697 48.5126C34.142 48.6436 34.1202 48.8401 34.3136 48.9524L36.5158 50.222C36.7092 50.3343 37.0523 50.3218 37.2769 50.1908L39.37 48.9805ZM39.1672 54.589C39.3918 54.4611 39.4167 54.2646 39.2234 54.1523L37.0211 52.8796C36.8246 52.7673 36.4846 52.7798 36.2569 52.9139L34.1639 54.1211C33.9393 54.2521 33.9143 54.4486 34.1077 54.5609L36.3099 55.8304C36.5065 55.9427 36.8465 55.9303 37.0742 55.7961L39.1672 54.589ZM34.8252 40.6364C35.0497 40.5054 35.0747 40.3089 34.8813 40.1966L32.6791 38.927C32.4857 38.8147 32.1426 38.8272 31.9149 38.9582L29.8218 40.1654C29.5972 40.2964 29.5723 40.4929 29.7657 40.6052L31.9679 41.8747C32.1644 41.9902 32.5044 41.9746 32.7321 41.8435L34.8252 40.6364ZM34.6193 46.2417C34.847 46.1107 34.8719 45.9142 34.6754 45.8019L32.4732 44.5324C32.2798 44.417 31.9367 44.4326 31.7121 44.5636L29.6191 45.7707C29.3913 45.9017 29.3664 46.0983 29.5629 46.2106L31.7651 47.4801C31.9585 47.5924 32.3016 47.5799 32.5262 47.4489L34.6193 46.2417ZM34.4134 51.844C34.6411 51.7161 34.6661 51.5196 34.4696 51.4073L32.2673 50.1346C32.0739 50.0223 31.7308 50.0348 31.5062 50.1689L29.4132 51.3761C29.1886 51.5071 29.1636 51.7036 29.357 51.8159L31.5593 53.0855C31.7526 53.1978 32.0958 53.1853 32.3204 53.0543L34.4134 51.844ZM29.8686 43.4968C30.0932 43.3658 30.1181 43.1692 29.9247 43.057L27.7225 41.7874C27.5291 41.6751 27.186 41.6876 26.9583 41.8186L24.8653 43.0258C24.6407 43.1568 24.6157 43.3533 24.8091 43.4656L27.0113 44.7351C27.2078 44.8505 27.5478 44.8349 27.7756 44.7039L29.8686 43.4968ZM29.644 49.0928C29.8717 48.9649 29.8967 48.7684 29.7002 48.653L22.7629 44.6478C22.5695 44.5355 22.2263 44.548 21.9986 44.679L19.9056 45.8861C19.681 46.0172 19.656 46.2137 19.8494 46.326L26.7899 50.3311C26.9833 50.4434 27.3264 50.431 27.551 50.2968L29.644 49.0928ZM25.1054 51.7161C25.3331 51.5882 25.3581 51.3917 25.1616 51.2794L22.9594 50.0067C22.766 49.8944 22.4228 49.9069 22.1983 50.041L20.1052 51.2482C19.8775 51.3792 19.8526 51.5757 20.0491 51.688L22.2513 52.9576C22.4447 53.0699 22.7878 53.0574 23.0124 52.9264L25.1054 51.7161ZM20.3672 48.9805C20.5918 48.8495 20.6168 48.653 20.4234 48.5407L18.2212 47.2711C18.0278 47.1557 17.6846 47.1713 17.4601 47.3023L15.367 48.5095C15.1393 48.6405 15.1144 48.837 15.3109 48.9493L17.5131 50.2188C17.7065 50.3311 18.0496 50.3187 18.2742 50.1877L20.3672 48.9805Z" fill="white"/>
<path d="M68.1423 59.3991C68.3357 59.5114 68.3107 59.7079 68.0861 59.8389L65.9931 61.0461C65.7654 61.174 65.4254 61.1927 65.2288 61.0773L63.0266 59.8077C62.8332 59.6954 62.8582 59.4989 63.0828 59.3679L65.1758 58.1607C65.4035 58.0328 65.7435 58.0172 65.94 58.1295L68.1423 59.3991Z" fill="white"/>
<path d="M63.3882 56.654C63.5848 56.7663 63.5598 56.9628 63.3321 57.0938L61.239 58.3009C61.0145 58.432 60.6713 58.4476 60.4779 58.3321L58.2757 57.0626C58.0823 56.9503 58.1042 56.7538 58.3319 56.6259L60.4249 55.4156C60.6495 55.2877 60.9926 55.2721 61.186 55.3844L63.3882 56.654Z" fill="white"/>
<path d="M63.1862 62.2624C63.3796 62.3747 63.3547 62.5712 63.1301 62.7022L61.037 63.9093C60.8093 64.0372 60.4693 64.056 60.2728 63.9405L58.0706 62.671C57.8772 62.5587 57.9021 62.3622 58.1267 62.2312L60.2198 61.024C60.4475 60.8961 60.7875 60.8805 60.984 60.9928L63.1862 62.2624Z" fill="white"/>
<path d="M58.6376 53.912C58.8341 54.0243 58.8091 54.2208 58.5814 54.3518L56.4884 55.559C56.2638 55.69 55.9207 55.7056 55.7273 55.5933L53.525 54.3206C53.3285 54.2083 53.3535 54.0118 53.5812 53.8839L55.6742 52.6767C55.8988 52.5457 56.2419 52.5301 56.4353 52.6424L58.6376 53.912Z" fill="white"/>
<path d="M58.4312 59.5172C58.6277 59.6295 58.6028 59.826 58.3751 59.9571L56.282 61.1642C56.0574 61.2952 55.7143 61.3108 55.5209 61.1954L53.3187 59.9259C53.1253 59.8136 53.1471 59.6171 53.3748 59.486L55.4679 58.2789C55.6925 58.151 56.0356 58.1354 56.229 58.2477L58.4312 59.5172Z" fill="white"/>
<path d="M58.2297 65.1226C58.4231 65.2349 58.3982 65.4314 58.1736 65.5624L56.0805 66.7696C55.8528 66.8975 55.5128 66.9162 55.3163 66.8008L48.3977 62.8081C48.2043 62.6958 48.2293 62.4993 48.4539 62.3683L50.5469 61.1611C50.7715 61.0301 51.1146 61.0145 51.3111 61.1268L58.2297 65.1226Z" fill="#D7DCE0"/>
<path d="M53.8864 51.1669C54.0798 51.2823 54.0548 51.4788 53.8303 51.6067L51.7372 52.8138C51.5095 52.9449 51.1695 52.9605 50.973 52.8482L48.7708 51.5786C48.5774 51.4632 48.6023 51.2667 48.8269 51.1388L50.92 49.9316C51.1477 49.8006 51.4908 49.785 51.6842 49.8973L53.8864 51.1669Z" fill="white"/>
<path d="M53.7157 67.7618C53.9091 67.8741 53.8841 68.0706 53.6595 68.1985L51.5665 69.4056C51.3419 69.5367 50.9988 69.5522 50.8054 69.44L48.6032 68.1704C48.4066 68.0581 48.4316 67.8616 48.6593 67.7306L50.7524 66.5234C50.9769 66.3924 51.3201 66.3768 51.5135 66.4891L53.7157 67.7618Z" fill="white"/>
<path d="M53.6815 56.7723C53.878 56.8846 53.8531 57.0811 53.6254 57.2122L51.5323 58.4193C51.3077 58.5503 50.9646 58.5659 50.7712 58.4536L48.569 57.181C48.3725 57.0687 48.3974 56.8721 48.6251 56.7443L50.7182 55.5371C50.9428 55.4061 51.2859 55.3905 51.4793 55.5028L53.6815 56.7723Z" fill="white"/>
<path d="M49.1364 48.4249C49.3298 48.5372 49.3048 48.7337 49.0803 48.8616L46.9872 50.0687C46.7595 50.1997 46.4195 50.2153 46.223 50.103L44.0208 48.8335C43.8274 48.7212 43.8523 48.5247 44.0769 48.3937L46.17 47.1865C46.3977 47.0555 46.7377 47.0399 46.9342 47.1522L49.1364 48.4249Z" fill="white"/>
<path d="M48.9772 65.0259C49.1706 65.1382 49.1457 65.3347 48.9211 65.4626L46.828 66.6729C46.6003 66.8008 46.2603 66.8164 46.0638 66.7041L43.8616 65.4346C43.6682 65.3223 43.6931 65.1258 43.9177 64.9947L46.0108 63.7876C46.2385 63.6566 46.5785 63.641 46.775 63.7533L48.9772 65.0259Z" fill="white"/>
<path d="M48.9303 54.0272C49.1237 54.1426 49.0988 54.3391 48.8742 54.467L46.7812 55.6742C46.5566 55.8052 46.2134 55.8208 46.0169 55.7085L43.8147 54.439C43.6213 54.3235 43.6463 54.127 43.8709 53.9991L45.9639 52.792C46.1916 52.661 46.5347 52.6454 46.7281 52.7577L48.9303 54.0272Z" fill="white"/>
<path d="M48.7245 59.6356C48.921 59.7479 48.896 59.9444 48.6683 60.0754L46.5753 61.2826C46.3507 61.4136 46.0076 61.4292 45.8142 61.3169L43.612 60.0442C43.4154 59.9319 43.4404 59.7354 43.6681 59.6075L45.7611 58.4004C45.9857 58.2694 46.3289 58.2538 46.5223 58.3661L48.7245 59.6356Z" fill="white"/>
<path d="M44.3824 45.6836C44.5789 45.7959 44.5539 45.9925 44.3262 46.1203L42.2332 47.3306C42.0086 47.4585 41.6655 47.4741 41.4721 47.3618L39.2699 46.0923C39.0765 45.98 39.0983 45.7835 39.326 45.6525L41.4191 44.4453C41.6436 44.3143 41.9868 44.2987 42.1802 44.411L44.3824 45.6836Z" fill="white"/>
<path d="M44.2385 62.2909C44.4319 62.4032 44.4069 62.5997 44.1823 62.7307L42.0893 63.9378C41.8616 64.0657 41.5216 64.0813 41.3251 63.969L24.7835 54.4209C24.5901 54.3086 24.615 54.1121 24.8396 53.9811L26.9327 52.7739C27.1572 52.6429 27.5004 52.6273 27.6938 52.7396L44.2385 62.2909Z" fill="#D7DCE0"/>
<path d="M44.1794 51.2891C44.3728 51.4014 44.3478 51.5979 44.1232 51.7258L42.0302 52.933C41.8025 53.064 41.4625 53.0796 41.266 52.9673L39.0637 51.6977C38.8703 51.5855 38.8953 51.3889 39.1199 51.2579L41.2129 50.0508C41.4406 49.9197 41.7806 49.9042 41.9772 50.0164L44.1794 51.2891Z" fill="white"/>
<path d="M43.9733 56.8905C44.1667 57.0059 44.1418 57.2024 43.9172 57.3303L41.8241 58.5375C41.5995 58.6685 41.2564 58.6841 41.0599 58.5718L38.8577 57.3022C38.6643 57.1868 38.6892 56.9903 38.9138 56.8624L41.0069 55.6553C41.2346 55.5242 41.5777 55.5086 41.7711 55.6209L43.9733 56.8905Z" fill="white"/>
<path d="M39.6288 42.9384C39.8253 43.0507 39.8003 43.2472 39.5726 43.3783L37.4796 44.5854C37.255 44.7133 36.9119 44.7289 36.7185 44.6166L34.5163 43.3471C34.3197 43.2348 34.3447 43.0383 34.5724 42.9072L36.6654 41.7001C36.89 41.5722 37.2332 41.5535 37.4265 41.6689L39.6288 42.9384Z" fill="white"/>
<path d="M39.4263 48.544C39.6228 48.6563 39.5979 48.8528 39.3702 48.9807L37.2771 50.191C37.0525 50.3189 36.7094 50.3345 36.516 50.2222L34.3138 48.9526C34.1204 48.8403 34.1422 48.6438 34.37 48.5128L36.463 47.3056C36.6876 47.1746 37.0307 47.159 37.2241 47.2713L39.4263 48.544Z" fill="white"/>
<path d="M39.2233 54.149C39.4167 54.2613 39.3918 54.4578 39.1672 54.5857L37.0741 55.7928C36.8464 55.9239 36.5064 55.9395 36.3099 55.8272L34.1077 54.5576C33.9143 54.4453 33.9392 54.2488 34.1638 54.1178L36.2569 52.9106C36.4846 52.7796 36.8246 52.764 37.0211 52.8763L39.2233 54.149Z" fill="white"/>
<path d="M37.2832 1.94462L40.0531 1.00571C40.1342 0.990114 40.2278 1.00571 40.3245 1.06186L85.1893 26.9644C85.4201 27.0986 85.5698 27.4012 85.523 27.6413L79.587 58.8062C79.5589 58.9465 79.4716 59.0339 79.3562 59.0557L76.8233 59.6016C76.9169 59.5673 76.9855 59.4831 77.0105 59.3614L82.7562 28.5865C82.7999 28.3463 82.6502 28.0406 82.4193 27.9096L37.5515 2.00388C37.4548 1.94774 37.3612 1.92902 37.2832 1.94462Z" fill="#3A3A3A"/>
<path d="M34.8776 40.1935C35.071 40.3058 35.0461 40.5023 34.8215 40.6333L32.7284 41.8405C32.5007 41.9684 32.1607 41.9871 31.9642 41.8717L29.762 40.6021C29.5686 40.4898 29.5935 40.2933 29.8181 40.1623L31.9112 38.9552C32.1389 38.8273 32.482 38.8117 32.6754 38.924L34.8776 40.1935Z" fill="white"/>
<path d="M34.6727 45.7988C34.8692 45.9111 34.8443 46.1076 34.6166 46.2386L32.5235 47.4458C32.2989 47.5737 31.9558 47.5893 31.7624 47.477L29.5602 46.2074C29.3637 46.0951 29.3886 45.8986 29.6163 45.7676L31.7094 44.5604C31.934 44.4325 32.2771 44.4138 32.4705 44.5292L34.6727 45.7988Z" fill="white"/>
<path d="M34.4653 51.4039C34.6618 51.5162 34.6369 51.7127 34.4092 51.8406L32.3161 53.0508C32.0915 53.1787 31.7484 53.1943 31.555 53.082L29.3528 51.8125C29.1594 51.7002 29.1844 51.5037 29.4089 51.3727L31.502 50.1655C31.7266 50.0345 32.0697 50.0189 32.2631 50.1312L34.4653 51.4039Z" fill="white"/>
<path d="M29.9206 43.0568C30.114 43.1691 30.089 43.3656 29.8644 43.4966L27.7714 44.7038C27.5437 44.8317 27.2037 44.8504 27.0072 44.735L24.8049 43.4654C24.6116 43.3531 24.6365 43.1566 24.8611 43.0256L26.9541 41.8184C27.1818 41.6905 27.525 41.6749 27.7184 41.7872L29.9206 43.0568Z" fill="white"/>
<path d="M29.7004 48.6496C29.8969 48.7651 29.872 48.9616 29.6443 49.0895L27.5512 50.2966C27.3266 50.4276 26.9835 50.4432 26.7901 50.3309L19.8528 46.3258C19.6594 46.2135 19.6844 46.017 19.9089 45.8859L22.002 44.6788C22.2297 44.5509 22.5728 44.5353 22.7662 44.6476L29.7004 48.6496Z" fill="#D7DCE0"/>
<path d="M25.1581 51.2759C25.3546 51.3882 25.3296 51.5847 25.1019 51.7126L23.0089 52.9229C22.7843 53.0508 22.4412 53.0664 22.2478 52.9541L20.0455 51.6846C19.849 51.5723 19.874 51.3758 20.1017 51.2447L22.1947 50.0376C22.4193 49.9066 22.7624 49.891 22.9558 50.0033L25.1581 51.2759Z" fill="white"/>
<path d="M20.4227 48.5406C20.6161 48.6529 20.5912 48.8494 20.3666 48.9804L18.2735 50.1875C18.0489 50.3154 17.7058 50.331 17.5124 50.2187L15.3102 48.9492C15.1137 48.8369 15.1386 48.6404 15.3663 48.5094L17.4594 47.3022C17.684 47.1712 18.0271 47.1556 18.2205 47.271L20.4227 48.5406Z" fill="white"/>
<path d="M76.5082 59.5518L76.6736 59.6485C76.7796 59.7077 76.8295 59.7919 76.8295 59.8762C76.8295 59.976 76.7547 60.0852 76.6112 60.1694L47.2119 77.1414C46.9467 77.2943 46.5412 77.3099 46.3104 77.1758L1.44562 51.2763C1.34892 51.2201 1.29901 51.1453 1.29277 51.0673C1.28342 50.9612 1.35828 50.8427 1.51112 50.7554L30.9104 33.7833C31.1756 33.6305 31.578 33.6149 31.8088 33.749" stroke="#3A3A3A" stroke-width="0.935787" stroke-miterlimit="10" stroke-linecap="round" stroke-linejoin="round"/>
<path d="M76.7794 59.6106C76.7014 59.6262 76.6079 59.6075 76.5112 59.5545L31.6433 33.6519C31.4125 33.5177 31.2627 33.2152 31.3064 32.975L37.0521 2.19694C37.0802 2.05346 37.1675 1.96924 37.283 1.94428C37.3641 1.92869 37.4545 1.9474 37.5512 2.00043L82.416 27.903C82.6468 28.034 82.7965 28.3397 82.7529 28.5799L77.0071 59.3548C76.9822 59.4796 76.9135 59.5607 76.82 59.595" stroke="#3A3A3A" stroke-width="0.935787" stroke-miterlimit="10" stroke-linecap="round" stroke-linejoin="round"/>
<path d="M26.7932 50.3309L19.8528 46.3258C19.6594 46.2135 19.6844 46.017 19.9089 45.8859L22.002 44.6788C22.2297 44.5509 22.5728 44.5353 22.7662 44.6476L29.7035 48.6528C29.9 48.7682 29.8751 48.9647 29.6474 49.0926L27.5543 50.2997C27.3297 50.4308 26.9866 50.4432 26.7932 50.3309Z" stroke="#3A3A3A" stroke-width="0.935787" stroke-miterlimit="10" stroke-linecap="round" stroke-linejoin="round"/>
<path d="M31.5589 53.0855L29.3567 51.8159C29.1633 51.7036 29.1883 51.5071 29.4129 51.3761L31.5059 50.1689C31.7305 50.0379 32.0736 50.0223 32.267 50.1346L34.4692 51.4073C34.6657 51.5196 34.6408 51.7161 34.4131 51.844L32.32 53.0543C32.0954 53.1822 31.7523 53.1978 31.5589 53.0855Z" stroke="#3A3A3A" stroke-width="0.935787" stroke-miterlimit="10" stroke-linecap="round" stroke-linejoin="round"/>
<path d="M36.3099 55.8272L34.1077 54.5576C33.9143 54.4453 33.9392 54.2488 34.1638 54.1178L36.2569 52.9106C36.4846 52.7796 36.8246 52.764 37.0211 52.8763L39.2233 54.149C39.4167 54.2613 39.3918 54.4578 39.1672 54.5857L37.0741 55.7928C36.8464 55.927 36.5095 55.9395 36.3099 55.8272Z" stroke="#3A3A3A" stroke-width="0.935787" stroke-miterlimit="10" stroke-linecap="round" stroke-linejoin="round"/>
<path d="M41.0638 58.5718L38.8616 57.3022C38.6682 57.1868 38.6931 56.9903 38.9177 56.8624L41.0108 55.6553C41.2385 55.5242 41.5816 55.5086 41.775 55.6209L43.9772 56.8905C44.1706 57.0059 44.1457 57.2024 43.9211 57.3303L41.828 58.5375C41.6003 58.6716 41.2603 58.6841 41.0638 58.5718Z" stroke="#3A3A3A" stroke-width="0.935787" stroke-miterlimit="10" stroke-linecap="round" stroke-linejoin="round"/>
<path d="M45.8171 61.3169L43.6149 60.0442C43.4184 59.9319 43.4433 59.7354 43.671 59.6075L45.7641 58.4004C45.9887 58.2694 46.3318 58.2538 46.5252 58.3661L48.7274 59.6356C48.9239 59.7479 48.899 59.9444 48.6713 60.0754L46.5782 61.2826C46.3536 61.4136 46.0105 61.4292 45.8171 61.3169Z" stroke="#3A3A3A" stroke-width="0.935787" stroke-miterlimit="10" stroke-linecap="round" stroke-linejoin="round"/>
<path d="M55.3192 66.8008L48.4007 62.8081C48.2073 62.6958 48.2322 62.4993 48.4568 62.3683L50.5498 61.1611C50.7744 61.0301 51.1176 61.0145 51.3141 61.1268L58.2327 65.1226C58.4261 65.2349 58.4011 65.4314 58.1765 65.5624L56.0835 66.7696C55.8558 66.9006 55.5158 66.9162 55.3192 66.8008Z" stroke="#3A3A3A" stroke-width="0.935787" stroke-miterlimit="10" stroke-linecap="round" stroke-linejoin="round"/>
<path d="M27.0111 44.735L24.8089 43.4654C24.6155 43.3531 24.6404 43.1566 24.865 43.0256L26.958 41.8184C27.1858 41.6905 27.5289 41.6749 27.7223 41.7872L29.9245 43.0568C30.1179 43.1691 30.0929 43.3656 29.8683 43.4966L27.7753 44.7038C27.5476 44.8317 27.2076 44.8504 27.0111 44.735Z" stroke="#3A3A3A" stroke-width="0.935787" stroke-miterlimit="10" stroke-linecap="round" stroke-linejoin="round"/>
<path d="M31.7644 47.477L29.5621 46.2074C29.3656 46.0951 29.3906 45.8986 29.6183 45.7676L31.7113 44.5604C31.9359 44.4325 32.2791 44.4138 32.4724 44.5292L34.6747 45.7988C34.8712 45.9111 34.8462 46.1076 34.6185 46.2386L32.5255 47.4458C32.3009 47.5768 31.9578 47.5893 31.7644 47.477Z" stroke="#3A3A3A" stroke-width="0.935787" stroke-miterlimit="10" stroke-linecap="round" stroke-linejoin="round"/>
<path d="M36.516 50.2222L34.3138 48.9526C34.1204 48.8403 34.1422 48.6438 34.37 48.5128L36.463 47.3056C36.6876 47.1746 37.0307 47.159 37.2241 47.2713L39.4263 48.544C39.6228 48.6563 39.5979 48.8528 39.3702 48.9807L37.2771 50.191C37.0525 50.322 36.7094 50.3345 36.516 50.2222Z" stroke="#3A3A3A" stroke-width="0.935787" stroke-miterlimit="10" stroke-linecap="round" stroke-linejoin="round"/>
<path d="M41.266 52.9673L39.0637 51.6977C38.8703 51.5855 38.8953 51.3889 39.1199 51.2579L41.2129 50.0508C41.4406 49.9197 41.7806 49.9042 41.9772 50.0164L44.1794 51.2891C44.3728 51.4014 44.3478 51.5979 44.1232 51.7258L42.0302 52.933C41.8025 53.064 41.4656 53.0796 41.266 52.9673Z" stroke="#3A3A3A" stroke-width="0.935787" stroke-miterlimit="10" stroke-linecap="round" stroke-linejoin="round"/>
<path d="M46.0199 55.7119L43.8176 54.4424C43.6242 54.327 43.6492 54.1304 43.8738 54.0026L45.9668 52.7954C46.1945 52.6644 46.5377 52.6488 46.7311 52.7611L48.9333 54.0306C49.1267 54.146 49.1017 54.3426 48.8771 54.4704L46.7841 55.6776C46.5595 55.8086 46.2164 55.8242 46.0199 55.7119Z" stroke="#3A3A3A" stroke-width="0.935787" stroke-miterlimit="10" stroke-linecap="round" stroke-linejoin="round"/>
<path d="M50.7741 58.4536L48.5719 57.181C48.3754 57.0687 48.4004 56.8721 48.6281 56.7443L50.7211 55.5371C50.9457 55.4061 51.2888 55.3905 51.4822 55.5028L53.6844 56.7723C53.8809 56.8846 53.856 57.0811 53.6283 57.2122L51.5352 58.4193C51.3107 58.5534 50.9675 58.5659 50.7741 58.4536Z" stroke="#3A3A3A" stroke-width="0.935787" stroke-miterlimit="10" stroke-linecap="round" stroke-linejoin="round"/>
<path d="M55.5238 61.1954L53.3216 59.9259C53.1282 59.8136 53.1501 59.6171 53.3778 59.486L55.4708 58.2789C55.6954 58.151 56.0385 58.1354 56.2319 58.2477L58.4341 59.5172C58.6307 59.6295 58.6057 59.826 58.378 59.9571L56.285 61.1642C56.0604 61.2984 55.7172 61.3108 55.5238 61.1954Z" stroke="#3A3A3A" stroke-width="0.935787" stroke-miterlimit="10" stroke-linecap="round" stroke-linejoin="round"/>
<path d="M60.2757 63.9405L58.0735 62.671C57.8801 62.5587 57.9051 62.3622 58.1297 62.2312L60.2227 61.024C60.4504 60.8961 60.7904 60.8805 60.9869 60.9928L63.1891 62.2624C63.3825 62.3747 63.3576 62.5712 63.133 62.7022L61.0399 63.9093C60.8122 64.0372 60.4722 64.056 60.2757 63.9405Z" stroke="#3A3A3A" stroke-width="0.935787" stroke-miterlimit="10" stroke-linecap="round" stroke-linejoin="round"/>
<path d="M31.9681 41.8717L29.7659 40.6021C29.5725 40.4898 29.5974 40.2933 29.822 40.1623L31.9151 38.9552C32.1428 38.8273 32.4859 38.8117 32.6793 38.924L34.8815 40.1935C35.0749 40.3058 35.05 40.5023 34.8254 40.6333L32.7323 41.8405C32.5046 41.9715 32.1646 41.9871 31.9681 41.8717Z" stroke="#3A3A3A" stroke-width="0.935787" stroke-miterlimit="10" stroke-linecap="round" stroke-linejoin="round"/>
<path d="M36.7214 44.6166L34.5192 43.3471C34.3227 43.2348 34.3476 43.0383 34.5753 42.9072L36.6684 41.7001C36.893 41.5722 37.2361 41.5535 37.4295 41.6689L39.6317 42.9384C39.8282 43.0507 39.8033 43.2472 39.5756 43.3783L37.4825 44.5854C37.2579 44.7164 36.9148 44.7289 36.7214 44.6166Z" stroke="#3A3A3A" stroke-width="0.935787" stroke-miterlimit="10" stroke-linecap="round" stroke-linejoin="round"/>
<path d="M41.4721 47.3618L39.2699 46.0923C39.0765 45.98 39.0983 45.7835 39.326 45.6525L41.4191 44.4453C41.6436 44.3143 41.9868 44.2987 42.1802 44.411L44.3824 45.6836C44.5789 45.7959 44.5539 45.9925 44.3262 46.1203L42.2332 47.3306C42.0086 47.4585 41.6686 47.4741 41.4721 47.3618Z" stroke="#3A3A3A" stroke-width="0.935787" stroke-miterlimit="10" stroke-linecap="round" stroke-linejoin="round"/>
<path d="M46.223 50.103L44.0208 48.8335C43.8274 48.7212 43.8523 48.5247 44.0769 48.3937L46.17 47.1865C46.3977 47.0555 46.7377 47.0399 46.9342 47.1522L49.1364 48.4249C49.3298 48.5372 49.3048 48.7337 49.0803 48.8616L46.9872 50.0687C46.7626 50.2029 46.4226 50.2153 46.223 50.103Z" stroke="#3A3A3A" stroke-width="0.935787" stroke-miterlimit="10" stroke-linecap="round" stroke-linejoin="round"/>
<path d="M50.9769 52.8482L48.7747 51.5786C48.5813 51.4632 48.6062 51.2667 48.8308 51.1388L50.9239 49.9316C51.1516 49.8006 51.4947 49.785 51.6881 49.8973L53.8903 51.1669C54.0837 51.2823 54.0588 51.4788 53.8342 51.6067L51.7411 52.8138C51.5134 52.948 51.1734 52.9605 50.9769 52.8482Z" stroke="#3A3A3A" stroke-width="0.935787" stroke-miterlimit="10" stroke-linecap="round" stroke-linejoin="round"/>
<path d="M55.7302 55.5933L53.528 54.3206C53.3315 54.2083 53.3564 54.0118 53.5841 53.8839L55.6772 52.6767C55.9018 52.5457 56.2449 52.5301 56.4383 52.6424L58.6405 53.912C58.837 54.0243 58.812 54.2208 58.5843 54.3518L56.4913 55.559C56.2667 55.69 55.9236 55.7056 55.7302 55.5933Z" stroke="#3A3A3A" stroke-width="0.935787" stroke-miterlimit="10" stroke-linecap="round" stroke-linejoin="round"/>
<path d="M60.4809 58.3351L58.2787 57.0655C58.0853 56.9532 58.1071 56.7567 58.3348 56.6288L60.4278 55.4185C60.6524 55.2906 60.9956 55.275 61.189 55.3873L63.3912 56.6569C63.5877 56.7692 63.5627 56.9657 63.335 57.0967L61.242 58.3039C61.0174 58.4349 60.6743 58.4474 60.4809 58.3351Z" stroke="#3A3A3A" stroke-width="0.935787" stroke-miterlimit="10" stroke-linecap="round" stroke-linejoin="round"/>
<path d="M65.2318 61.0773L63.0296 59.8077C62.8362 59.6954 62.8611 59.4989 63.0857 59.3679L65.1787 58.1607C65.4065 58.0328 65.7465 58.0172 65.943 58.1295L68.1452 59.3991C68.3386 59.5114 68.3136 59.7079 68.089 59.8389L65.996 61.0461C65.7683 61.1771 65.4283 61.1927 65.2318 61.0773Z" stroke="#3A3A3A" stroke-width="0.935787" stroke-miterlimit="10" stroke-linecap="round" stroke-linejoin="round"/>
<path d="M17.5124 50.2187L15.3102 48.9492C15.1137 48.8369 15.1386 48.6404 15.3663 48.5094L17.4594 47.3022C17.684 47.1712 18.0271 47.1556 18.2205 47.271L20.4227 48.5406C20.6161 48.6529 20.5912 48.8494 20.3666 48.9804L18.2735 50.1875C18.0489 50.3186 17.7089 50.331 17.5124 50.2187Z" stroke="#3A3A3A" stroke-width="0.935787" stroke-miterlimit="10" stroke-linecap="round" stroke-linejoin="round"/>
<path d="M22.2507 52.9541L20.0485 51.6846C19.852 51.5723 19.8769 51.3758 20.1046 51.2447L22.1977 50.0376C22.4223 49.9066 22.7654 49.891 22.9588 50.0033L25.161 51.2759C25.3575 51.3882 25.3326 51.5847 25.1048 51.7126L23.0118 52.9229C22.7872 53.0539 22.4441 53.0664 22.2507 52.9541Z" stroke="#3A3A3A" stroke-width="0.935787" stroke-miterlimit="10" stroke-linecap="round" stroke-linejoin="round"/>
<path d="M46.0667 66.7041L43.8645 65.4346C43.6711 65.3223 43.6961 65.1258 43.9207 64.9947L46.0137 63.7876C46.2414 63.6566 46.5814 63.641 46.7779 63.7533L48.9802 65.0259C49.1736 65.1382 49.1486 65.3347 48.924 65.4626L46.831 66.6729C46.6033 66.8039 46.2633 66.8164 46.0667 66.7041Z" stroke="#3A3A3A" stroke-width="0.935787" stroke-miterlimit="10" stroke-linecap="round" stroke-linejoin="round"/>
<path d="M50.8054 69.44L48.6032 68.1704C48.4066 68.0581 48.4316 67.8616 48.6593 67.7306L50.7524 66.5234C50.9769 66.3924 51.3201 66.3768 51.5135 66.4891L53.7157 67.7618C53.9091 67.8741 53.8841 68.0706 53.6595 68.1985L51.5665 69.4056C51.3419 69.5398 51.0019 69.5522 50.8054 69.44Z" stroke="#3A3A3A" stroke-width="0.935787" stroke-miterlimit="10" stroke-linecap="round" stroke-linejoin="round"/>
<path d="M41.329 63.969L24.7874 54.4209C24.594 54.3086 24.6189 54.1121 24.8435 53.9811L26.9366 52.7739C27.1612 52.6429 27.5043 52.6273 27.6977 52.7396L44.2424 62.2909C44.4358 62.4032 44.4108 62.5997 44.1862 62.7307L42.0932 63.9378C41.8655 64.0689 41.5255 64.0813 41.329 63.969Z" stroke="#3A3A3A" stroke-width="0.935787" stroke-miterlimit="10" stroke-linecap="round" stroke-linejoin="round"/>
<path d="M1.29297 51.0483V54.2799C1.29297 54.3641 1.34288 54.4484 1.44581 54.5076L46.3106 80.4071C46.5414 80.5412 46.9469 80.5256 47.2121 80.3728L76.6114 63.4007C76.758 63.3165 76.8297 63.2105 76.8297 63.1075V59.8759" stroke="#3A3A3A" stroke-width="0.935787" stroke-miterlimit="10" stroke-linecap="round" stroke-linejoin="round"/>
<path d="M37.2832 1.94462L40.0531 1.00571C40.1342 0.990114 40.2278 1.00571 40.3245 1.06186L85.1893 26.9644C85.4201 27.0986 85.5698 27.4012 85.523 27.6413L79.587 58.8062C79.5589 58.9465 79.4716 59.0339 79.3562 59.0557L76.7797 59.6109" stroke="#3A3A3A" stroke-width="0.935787" stroke-miterlimit="10" stroke-linecap="round" stroke-linejoin="round"/>
</svg>
