<svg width="30" height="30" viewBox="0 0 30 30" fill="none" xmlns="http://www.w3.org/2000/svg">
<path d="M29.9329 1.28587C30.0011 1.1155 30.0178 0.928867 29.9809 0.749101C29.944 0.569335 29.8552 0.404345 29.7254 0.274584C29.5957 0.144824 29.4307 0.0559996 29.2509 0.0191236C29.0712 -0.0177525 28.8845 -0.0010586 28.7142 0.0671355L1.43948 10.9776H1.43761L0.590135 11.3151C0.429623 11.3791 0.289931 11.4863 0.186491 11.6247C0.0830513 11.7632 0.0198889 11.9275 0.0039809 12.0996C-0.0119271 12.2717 0.0200386 12.4448 0.0963468 12.5999C0.172655 12.7549 0.290336 12.8859 0.436391 12.9782L1.20511 13.4657L1.20699 13.4695L10.5723 19.4281L16.5308 28.7936L16.5346 28.7974L17.0221 29.5661C17.1147 29.7116 17.2457 29.8287 17.4007 29.9046C17.5556 29.9804 17.7285 30.012 17.9002 29.9959C18.072 29.9798 18.2359 29.9167 18.3741 29.8134C18.5122 29.7101 18.6192 29.5707 18.6833 29.4105L29.9329 1.28587ZM26.4961 4.82958L12.4453 18.8806L12.0422 18.2469C11.9684 18.1306 11.8698 18.032 11.7535 17.9582L11.1198 17.555L25.1705 3.50397L27.3792 2.62085L26.498 4.82958H26.4961Z" fill="white"/>
</svg>
